<svg xmlns="http://www.w3.org/2000/svg" viewBox="0 0 512 512">
  <defs>
    <!-- Shadow filter -->
    <filter id="shadow" x="-10%" y="-10%" width="120%" height="120%">
      <feDropShadow dx="0" dy="4" stdDeviation="8" flood-color="#11111b" flood-opacity="0.4"/>
    </filter>
  </defs>

  <!-- Background rounded square - Catppuccin Mocha Base -->
  <rect x="16" y="16" width="480" height="480" rx="96" ry="96" fill="#1e1e2e"/>

  <!-- Monitor frame -->
  <g filter="url(#shadow)">
    <!-- Monitor body - Surface1 -->
    <rect x="76" y="100" width="360" height="230" rx="16" ry="16" fill="#45475a"/>
    <!-- Monitor screen area - Base -->
    <rect x="88" y="112" width="336" height="206" rx="8" ry="8" fill="#1e1e2e"/>

    <!-- VM Windows - Catppuccin Mocha colors (12px padding/gaps) -->
    <!-- Top left - Pink -->
    <rect x="100" y="124" width="96" height="85" rx="6" ry="6" fill="#f5c2e7"/>
    <!-- Top right - Blue -->
    <rect x="208" y="124" width="96" height="85" rx="6" ry="6" fill="#89b4fa"/>
    <!-- Bottom left - Green -->
    <rect x="100" y="221" width="96" height="85" rx="6" ry="6" fill="#a6e3a1"/>
    <!-- Bottom right - Mauve -->
    <rect x="208" y="221" width="96" height="85" rx="6" ry="6" fill="#cba6f7"/>
    <!-- Side panel - Peach -->
    <rect x="316" y="124" width="96" height="182" rx="6" ry="6" fill="#fab387"/>

  </g>

  <!-- Monitor stand - connected to monitor body -->
  <rect x="236" y="330" width="40" height="50" fill="#45475a"/>
  <!-- Monitor base - Surface2 -->
  <rect x="186" y="370" width="140" height="16" rx="4" ry="4" fill="#585b70"/>
</svg>
